<svg width="640" height="512" viewBox="0 0 640 512" fill="none" xmlns="http://www.w3.org/2000/svg">
<path fill-rule="evenodd" clip-rule="evenodd" d="M96 128C96 94.0523 109.486 61.495 133.49 37.4903C157.495 13.4857 190.052 0 224 0C257.948 0 290.505 13.4857 314.51 37.4903C338.514 61.495 352 94.0523 352 128C352 161.948 338.514 194.505 314.51 218.51C290.505 242.514 257.948 256 224 256C190.052 256 157.495 242.514 133.49 218.51C109.486 194.505 96 161.948 96 128ZM0 482.3C0 383.8 79.8 304 178.3 304H269.7C368.2 304 448 383.8 448 482.3C448 498.7 434.7 512 418.3 512H29.7C13.3 512 0 498.7 0 482.3ZM609.3 512H471.5C476.9 502.6 480.1 491.7 480.1 480V472C480.1 411.3 453 356.8 410.3 320.2L410.577 320.188L410.578 320.188C412.878 320.092 415.093 320 417.4 320H478.8C567.8 320 640 392.2 640 481.3C640 498.3 626.2 512 609.3 512ZM432 256C401 256 373 243.4 352.7 223.1C372.4 196.5 384 163.6 384 128C384 101.2 377.4 75.9 365.7 53.7C384.3 40.1 407.2 32 432 32C493.9 32 544 82.1 544 144C544 205.9 493.9 256 432 256ZM296 125C296 166.421 262.198 200 220.5 200C178.803 200 145 166.421 145 125C145 83.5787 178.803 50 220.5 50C262.198 50 296 83.5787 296 125ZM67.5 475.277H353.71C354.327 475.212 355.806 475.236 357.871 475.269C369.942 475.463 402.04 475.98 399 461C392.96 431.235 378.885 414.228 373.617 407.863C373.181 407.336 372.806 406.882 372.5 406.5C372.432 406.414 372.3 406.233 372.105 405.965C368.024 400.345 336.145 356.438 272.5 348.5C211.105 345.306 192.139 346.829 177.335 348.017C175.174 348.19 173.102 348.357 171 348.5C170.76 348.526 170.485 348.554 170.176 348.586C156.933 349.953 81.1673 357.771 58 437.5C49 473 49 475.277 67.5 475.277Z" fill="black"/>
</svg>
