<svg width="132" height="132" viewBox="0 0 132 132" fill="none" xmlns="http://www.w3.org/2000/svg">
<path d="M66.3783 0.614088L123.208 33.425V99.0467L66.3783 131.858L9.54815 99.0467V33.425L66.3783 0.614088Z" fill="black"/>
<path fill-rule="evenodd" clip-rule="evenodd" d="M38.0949 35.9403H28.4809L29.8224 79.9862H36.7534L38.0949 35.9403ZM31.611 41.5299H34.7412L34.3044 76.1853H32.0478L31.611 41.5299Z" fill="#F4F4F4"/>
<circle cx="33.5115" cy="91.5008" r="5.03063" fill="#F4F4F4"/>
<path d="M98.9097 35.9403H109.194L86.6126 61.6524L112.995 96.5314H92.2916L76.0818 75.3357L57.5244 96.5314H47.2395L71.1629 69.0306L45.898 35.9403H67.1161L81.7608 55.3026L98.9097 35.9403ZM95.31 90.4946H101.011L64.1201 41.7534H57.9939L95.31 90.4946Z" fill="#F4F4F4"/>
</svg>
